#!OML:ASF X:\für Bonn\!DataBase\2005_08_10_Bjorn_Final\c3d\bjorn.ASF
:FULLY-SPECIFIED
:DEGREES
61
root 18.6455 19.2159 0.755205 1128.98 -86.6459 -397.784
lowerback 31.0084 5.85625 5.87282
upperback 23.112 5.54626 -1.47202
thorax 10.2207 2.66415 -5.92695
lowerneck 9.19058 -2.167 2.60928
upperneck -6.03336 -2.99389 -4.81179
head -3.75868 -1.34145 -1.89156
rclavicle 2.38542e-015 -1.07344e-013
rhumerus 30.4065 -2.27599 -76.2861
rradius 26.2601
rwrist -11.0106
rhand -11.2695 10.4896
rfingers 7.12502
rthumb 14.7609 -18.9648
lclavicle 2.38542e-015 -1.07344e-013
lhumerus -5.97276 -15.7434 84.3548
lradius 48.7489
lwrist -4.6907
lhand -25.7741 -11.736
lfingers 7.12502
lthumb 0.763885 18.2423
rfemur -31.065 -12.7618 20.6677
rtibia 37.775
rfoot -7.74718 19.8823
rtoes -1.14821
lfemur -35.177 12.1151 -16.8254
ltibia 34.0461
lfoot -4.08924 -0.78237
ltoes -12.9996
62
root 18.6409 19.2063 0.788723 1127.64 -86.6272 -395.553
lowerback 31.3602 5.88215 5.83462
upperback 23.2989 5.52213 -1.59435
thorax 10.3101 2.6592 -6.0478
lowerneck 9.57599 -2.23892 2.7402
upperneck -6.88509 -3.09121 -4.69296
head -4.14258 -1.38826 -1.87424
rclavicle -1.98785e-014 5.48646e-014
rhumerus 31.4527 -2.45277 -75.9057
rradius 26.199
rwrist -11.3361
rhand -11.2684 10.4103
rfingers 7.12502
rthumb 14.7619 -19.044
lclavicle -1.98785e-014 5.48646e-014
lhumerus -5.30919 -16.3608 83.888
lradius 49.2744
lwrist -4.14148
lhand -25.9494 -11.4414
lfingers 7.12502
lthumb 0.594598 18.5376
rfemur -32.4656 -12.5494 20.5982
rtibia 38.4895
rfoot -7.46915 19.5772
rtoes -1.18534
lfemur -36.3632 12.2911 -17.3154
ltibia 34.2871
lfoot -4.09241 -1.10263
ltoes -12.8028
63
root 18.6349 19.1959 0.822483 1126.27 -86.6232 -393.288
lowerback 31.696 5.92905 5.74194
upperback 23.4365 5.5224 -1.67842
thorax 10.3405 2.65549 -6.10226
lowerneck 9.9315 -2.31287 2.78991
upperneck -7.90158 -3.22068 -4.76324
head -4.10585 -1.42506 -1.70451
rclavicle -4.92986e-014 -2.04748e-014
rhumerus 32.4366 -2.67892 -75.5436
rradius 26.07
rwrist -11.5144
rhand -11.3012 10.3515
rfingers 7.12502
rthumb 14.7303 -19.1051
lclavicle -4.92986e-014 -2.04748e-014
lhumerus -4.87463 -16.9437 83.4936
lradius 49.8845
lwrist -3.61026
lhand -26.0459 -11.2544
lfingers 7.12502
lthumb 0.501448 18.7248
rfemur -33.9012 -12.3107 20.4924
rtibia 39.2458
rfoot -7.10665 19.2506
rtoes -1.07888
lfemur -37.565 12.4373 -17.8227
ltibia 34.5466
lfoot -4.11642 -1.38817
ltoes -12.4367
64
root 18.6293 19.1844 0.855711 1125.06 -86.5778 -391.194
lowerback 32.0723 5.9548 5.67783
upperback 23.5393 5.50926 -1.74465
thorax 10.3144 2.64581 -6.15142
lowerneck 10.2827 -2.37825 2.78393
upperneck -8.47816 -3.31826 -4.6731
head -4.3423 -1.46905 -1.66446
rclavicle 1.74931e-014 2.52457e-014
rhumerus 33.3834 -2.86278 -75.1223
rradius 25.9179
rwrist -11.664
rhand -11.3416 10.3269
rfingers 7.12502
rthumb 14.6914 -19.1326
lclavicle 1.74931e-014 2.52457e-014
lhumerus -4.5576 -17.4651 83.144
lradius 50.5597
lwrist -3.1116
lhand -26.0711 -10.9699
lfingers 7.12502
lthumb 0.477037 19.0094
rfemur -35.3383 -12.1128 20.4219
rtibia 40.0376
rfoot -6.72572 18.8988
rtoes -0.83653
lfemur -38.7704 12.558 -18.2956
ltibia 34.8224
lfoot -4.14073 -1.66069
ltoes -12.1616
65
root 18.6224 19.1732 0.887743 1124.12 -86.5421 -389.375
lowerback 32.4579 6.00641 5.59872
upperback 23.6121 5.53014 -1.78162
thorax 10.2505 2.64795 -6.16735
lowerneck 10.6825 -2.46971 2.78202
upperneck -8.99942 -3.45016 -4.61304
head -4.57246 -1.52837 -1.63099
rclavicle 6.36111e-014 -1.05555e-013
rhumerus 34.3029 -3.06426 -74.6575
rradius 25.6827
rwrist -11.7747
rhand -11.3977 10.2987
rfingers 7.12502
rthumb 14.6374 -19.1647
lclavicle 6.36111e-014 -1.05555e-013
lhumerus -4.31023 -17.9751 82.8664
lradius 51.1788
lwrist -2.65144
lhand -26.1115 -10.7287
lfingers 7.12502
lthumb 0.438053 19.2506
rfemur -36.78 -11.8868 20.3393
rtibia 40.8817
rfoot -6.37848 18.5768
rtoes -0.833037
lfemur -39.9612 12.7152 -18.7812
ltibia 35.0967
lfoot -4.15441 -1.96334
ltoes -11.9726
66
root 18.6159 19.1621 0.918166 1123.83 -86.465 -388.243
lowerback 32.885 6.04808 5.54284
upperback 23.6524 5.54871 -1.77759
thorax 10.1317 2.64563 -6.15207
lowerneck 11.1444 -2.5612 2.72037
upperneck -9.53062 -3.592 -4.56077
head -4.81627 -1.58918 -1.5881
rclavicle -7.31528e-014 -3.97569e-016
rhumerus 35.2047 -3.21844 -74.137
rradius 25.389
rwrist -11.8398
rhand -11.5092 10.2643
rfingers 7.12502
rthumb 14.5299 -19.2068
lclavicle -7.31528e-014 -3.97569e-016
lhumerus -4.16709 -18.4452 82.6496
lradius 51.8001
lwrist -2.16862
lhand -26.1367 -10.5427
lfingers 7.12502
lthumb 0.413734 19.4367
rfemur -38.2202 -11.6472 20.2998
rtibia 41.786
rfoot -6.10938 18.2529
rtoes -0.873076
lfemur -41.1146 12.8509 -19.1909
ltibia 35.3617
lfoot -4.17077 -2.24533
ltoes -11.8851
67
root 18.6086 19.1529 0.94796 1123.84 -86.3724 -387.402
lowerback 33.2793 6.089 5.51208
upperback 23.7002 5.57035 -1.75247
thorax 10.0381 2.64706 -6.12629
lowerneck 11.7355 -2.65062 2.56952
upperneck -10.2311 -3.74026 -4.4175
head -5.13179 -1.65244 -1.49915
rclavicle 1.59028e-014 -1.72943e-014
rhumerus 36.152 -3.34619 -73.5167
rradius 25.0601
rwrist -11.9698
rhand -11.5756 10.2492
rfingers 7.12502
rthumb 14.466 -19.2266
lclavicle 1.59028e-014 -1.72943e-014
lhumerus -4.01363 -18.8887 82.4633
lradius 52.3843
lwrist -1.7501
lhand -26.1369 -10.2802
lfingers 7.12502
lthumb 0.413544 19.6992
rfemur -39.7154 -11.391 20.2717
rtibia 42.7626
rfoot -6.00507 17.9316
rtoes -1.56831
lfemur -42.2719 13.0126 -19.5962
ltibia 35.6105
lfoot -4.14009 -2.56359
ltoes -11.77
68
root 18.6006 19.1446 0.975538 1123.96 -86.2879 -386.686
lowerback 33.7024 6.1368 5.48367
upperback 23.7312 5.60381 -1.73632
thorax 9.91837 2.65522 -6.11502
lowerneck 12.2988 -2.74205 2.50969
upperneck -10.8619 -3.87786 -4.30767
head -5.42416 -1.71258 -1.43556
rclavicle 1.59028e-015 1.13307e-014
rhumerus 37.0908 -3.49767 -72.9125
rradius 24.6597
rwrist -12.0289
rhand -11.6573 10.2585
rfingers 7.12502
rthumb 14.3872 -19.2229
lclavicle 1.59028e-015 1.13307e-014
lhumerus -3.90295 -19.3018 82.2748
lradius 52.9216
lwrist -1.35588
lhand -26.093 -10.0913
lfingers 7.12502
lthumb 0.455916 19.888
rfemur -41.2219 -11.1487 20.2412
rtibia 43.7849
rfoot -5.95191 17.6088
rtoes -2.60471
lfemur -43.3992 13.156 -19.9846
ltibia 35.8643
lfoot -4.09218 -2.88547
ltoes -11.5396
69
root 18.5925 19.1356 1.00092 1124.51 -86.2016 -386.42
lowerback 34.1702 6.18791 5.49967
upperback 23.7442 5.65426 -1.72461
thorax 9.77143 2.67739 -6.13704
lowerneck 12.8445 -2.84314 2.468
upperneck -11.4713 -4.01856 -4.15768
head -5.70768 -1.77844 -1.36112
rclavicle -5.725e-014 5.82439e-014
rhumerus 38.0188 -3.59637 -72.2154
rradius 24.238
rwrist -12.1945
rhand -11.7804 10.239
rfingers 7.12502
rthumb 14.2686 -19.2508
lclavicle -5.725e-014 5.82439e-014
lhumerus -3.81887 -19.7399 82.08
lradius 53.4276
lwrist -0.96393
lhand -26.0161 -9.99216
lfingers 7.12502
lthumb 0.530173 19.9869
rfemur -42.729 -10.8764 20.2296
rtibia 44.82
rfoot -5.84965 17.2667
rtoes -3.95564
lfemur -44.5049 13.2832 -20.3266
ltibia 36.143
lfoot -4.06484 -3.15219
ltoes -11.2544
70
root 18.5824 19.1231 1.02497 1125.33 -86.1063 -386.447
lowerback 34.6172 6.24454 5.54382
upperback 23.7793 5.71331 -1.70349
thorax 9.66499 2.70753 -6.16447
lowerneck 13.1739 -2.94792 2.41733
upperneck -11.8899 -4.15964 -3.99558
head -5.89517 -1.85 -1.28341
rclavicle -4.77083e-015 8.34896e-015
rhumerus 39.0817 -3.80463 -71.615
rradius 23.6884
rwrist -12.266
rhand -11.9005 10.2496
rfingers 7.12502
rthumb 14.1529 -19.2483
lclavicle -4.77083e-015 8.34896e-015
lhumerus -3.7147 -20.1726 81.8806
lradius 53.8849
lwrist -0.618873
lhand -25.9908 -9.90446
lfingers 7.12502
lthumb 0.554642 20.0746
rfemur -44.2082 -10.5964 20.2287
rtibia 45.8255
rfoot -5.62005 16.9452
rtoes -4.5295
lfemur -45.6196 13.409 -20.6449
ltibia 36.457
lfoot -4.05783 -3.42483
ltoes -11.2193
71
root 18.5718 19.1063 1.04903 1126.11 -86.0046 -386.472
lowerback 35.0851 6.28231 5.63312
upperback 23.8232 5.75858 -1.7147
thorax 9.57114 2.74039 -6.24849
lowerneck 13.414 -3.06096 2.49511
upperneck -12.2602 -4.29299 -3.8821
head -6.05622 -1.92189 -1.24306
rclavicle 4.6118e-014 -3.73715e-014
rhumerus 40.2267 -4.09934 -71.172
rradius 23.0776
rwrist -12.2326
rhand -11.9881 10.2618
rfingers 7.12502
rthumb 14.0684 -19.242
lclavicle 4.6118e-014 -3.73715e-014
lhumerus -3.5682 -20.5732 81.645
lradius 54.2492
lwrist -0.303034
lhand -26.0423 -9.84829
lfingers 7.12502
lthumb 0.504849 20.1309
rfemur -45.6421 -10.3519 20.2302
rtibia 46.7801
rfoot -5.30735 16.6827
rtoes -4.57776
lfemur -46.7141 13.5199 -20.9483
ltibia 36.8099
lfoot -4.07287 -3.71767
ltoes -11.0831
